<svg xmlns="http://www.w3.org/2000/svg" width="46.315" height="52.931" viewBox="0 0 46.315 52.931">
  <path id="Icon_awesome-shopping-bag"  d="M36.39,16.541V13.233a13.233,13.233,0,1,0-26.466,0v3.308H0v28.12a8.27,8.27,0,0,0,8.27,8.27H38.044a8.27,8.27,0,0,0,8.27-8.27V16.541ZM16.541,13.233a6.616,6.616,0,0,1,13.233,0v3.308H16.541ZM33.082,25.639a2.481,2.481,0,1,1,2.481-2.481A2.481,2.481,0,0,1,33.082,25.639Zm-19.849,0a2.481,2.481,0,1,1,2.481-2.481A2.481,2.481,0,0,1,13.233,25.639Z" fill="#FFF"/>
</svg>
